<?xml version="1.0" encoding="UTF-8"?>
<svg id="svg1000" xmlns="http://www.w3.org/2000/svg" xmlns:xlink="http://www.w3.org/1999/xlink" viewBox="0 0 306.14 306.14">
  <defs>
    <style>
      .cls-1 {
        fill: url(#Gradiente_sem_nome_13);
      }

      .cls-2 {
        fill: #017557;
      }
    </style>
    <linearGradient id="Gradiente_sem_nome_13" data-name="Gradiente sem nome 13" x1="100.29" y1="153.07" x2="261.45" y2="153.07" gradientUnits="userSpaceOnUse">
      <stop offset=".1" stop-color="#3dc873"/>
      <stop offset=".13" stop-color="#41c871"/>
      <stop offset=".18" stop-color="#4eca6e"/>
      <stop offset=".22" stop-color="#64cd68"/>
      <stop offset=".27" stop-color="#82d160"/>
      <stop offset=".27" stop-color="#89d25f"/>
      <stop offset=".36" stop-color="#93d15c"/>
      <stop offset=".5" stop-color="#b0ce56"/>
      <stop offset=".69" stop-color="#ddca4d"/>
      <stop offset=".79" stop-color="#fbc847"/>
      <stop offset=".82" stop-color="#dbc34e"/>
      <stop offset=".88" stop-color="#85b563"/>
      <stop offset=".94" stop-color="#46ac72"/>
      <stop offset=".98" stop-color="#1ea67c"/>
      <stop offset="1" stop-color="#10a480"/>
    </linearGradient>
  </defs>
  <g>
    <path class="cls-2" d="M192.57,111.11c-1.22-3.77-3.28-6.43-5.47-8.3-3.28-2.79-7.47-4.34-11.77-4.35h-33.83c.18,11.75,11.07,13.15,11.07,13.15,0,0-51.05,61.01-51.11,61.08-.75.93-2.69,4.2,1.09,6.8,2.11,1.46,18.29.71,18.29.71l-15,21.65c-2.1,3.06-1.11,4.56-.04,5.26.57.38,1.25.57,1.94.57h5.47c10.2,0,19.8-4.87,25.8-13.12,1.1-1.52,1.64-2.54,1.64-2.54h9.26c4.47,0,8.91-.65,13.18-1.99,10.88-3.42,17.98-10.3,22.58-17.23,5.29-7.98,8.06-17.37,8.09-26.95l.04-12.59c4.89-.33,7.09-5.69,7.09-5.69l4.95,2.54c.8-18.27-13.25-19.01-13.25-19.01ZM110.63,172.41l28.22-33.79c1.82-2.18,4.31-3.73,7.1-4.31,3.46-.73,8.06-.15,12.57,5.07,8.82,10.2-1.18,22.9-6.46,26.57-.22.15-.47.26-.7.39-1.87,1.09-10.74,5.88-17.11,6.06l11.04-14c1.43-2.14.7-4.08-.56-4.91-3-1.97-5.25,1.45-5.25,1.45l-13.47,17.46h-15.37ZM168.33,179.54s-7.73,5.32-16.26,5.52h-12.72s-.96,0-.96,0c-1.78,0-2.62-.08-4.11,2.76-.2.38-.41.75-.64,1.11-1.76,2.74-8.42,11.86-19.01,11.18l14.43-19.91s21.45-1.42,31.27-12.88c.41-.48.88-.92,1.28-1.42,2.24-2.83,8.31-9.82,6.01-22.23-.48-2.59-1.34-5.09-2.51-7.45-1.96-3.97-6.12-13.97-3.29-22.44,0,0,3.21-8.43,12.85-7.73,0,0,.39.02,1.02.14,5.86,1.1,10.1,6.22,10.15,12.18l.27,31.25s0,18.27-17.77,29.92Z"/>
    <path class="cls-2" d="M176.33,113.93s-.09-.02-.13-.03c-1.73-.42-3.57.25-4.53,1.75-.31.49-.51,1.05-.38,1.59.1.45.47.8.92.89,1.3.27,4.87,1.27,6.74,4.43l.16-4.82c.06-1.76-1.08-3.36-2.78-3.82Z"/>
  </g>
  <g>
    <path class="cls-1" d="M192.57,111.11c-1.22-3.77-3.28-6.43-5.47-8.3-3.28-2.79-7.47-4.34-11.77-4.35h-33.83c.18,11.75,11.07,13.15,11.07,13.15,0,0-51.05,61.01-51.11,61.08-.75.93-2.69,4.2,1.09,6.8,2.11,1.46,18.29.71,18.29.71l-15,21.65c-2.1,3.06-1.11,4.56-.04,5.26.57.38,1.25.57,1.94.57h5.47c10.2,0,19.8-4.87,25.8-13.12,1.1-1.52,1.64-2.54,1.64-2.54h9.26c4.47,0,8.91-.65,13.18-1.99,10.88-3.42,17.98-10.3,22.58-17.23,5.29-7.98,8.06-17.37,8.09-26.95l.04-12.59c4.89-.33,7.09-5.69,7.09-5.69l4.95,2.54c.8-18.27-13.25-19.01-13.25-19.01ZM110.63,172.41l28.22-33.79c1.82-2.18,4.31-3.73,7.1-4.31,3.46-.73,8.06-.15,12.57,5.07,8.82,10.2-1.18,22.9-6.46,26.57-.22.15-.47.26-.7.39-1.87,1.09-10.74,5.88-17.11,6.06l11.04-14c1.43-2.14.7-4.08-.56-4.91-3-1.97-5.25,1.45-5.25,1.45l-13.47,17.46h-15.37ZM168.33,179.54s-7.73,5.32-16.26,5.52h-12.72s-.96,0-.96,0c-1.78,0-2.62-.08-4.11,2.76-.2.38-.41.75-.64,1.11-1.76,2.74-8.42,11.86-19.01,11.18l14.43-19.91s21.45-1.42,31.27-12.88c.41-.48.88-.92,1.28-1.42,2.24-2.83,8.31-9.82,6.01-22.23-.48-2.59-1.34-5.09-2.51-7.45-1.96-3.97-6.12-13.97-3.29-22.44,0,0,3.21-8.43,12.85-7.73,0,0,.39.02,1.02.14,5.86,1.1,10.1,6.22,10.15,12.18l.27,31.25s0,18.27-17.77,29.92Z"/>
    <path class="cls-1" d="M176.33,113.93s-.09-.02-.13-.03c-1.73-.42-3.57.25-4.53,1.75-.31.49-.51,1.05-.38,1.59.1.45.47.8.92.89,1.3.27,4.87,1.27,6.74,4.43l.16-4.82c.06-1.76-1.08-3.36-2.78-3.82Z"/>
  </g>
</svg>