<?xml version="1.0" encoding="UTF-8"?>
<svg id="svg1000" xmlns="http://www.w3.org/2000/svg" viewBox="0 0 306.14 306.14">
  <path d="M192.72,111.05c-1.22-3.77-3.28-6.43-5.47-8.3-3.27-2.79-7.46-4.34-11.77-4.35h-33.81c.18,11.74,11.06,13.15,11.06,13.15,0,0-51.03,60.99-51.09,61.05-.75.92-2.69,4.2,1.09,6.8,2.11,1.46,18.28.71,18.28.71l-15,21.64c-2.1,3.06-1.11,4.56-.04,5.26.57.38,1.25.57,1.94.57h5.47c10.2,0,19.79-4.87,25.79-13.12,1.1-1.52,1.64-2.54,1.64-2.54h9.25c4.46,0,8.91-.65,13.17-1.99,10.87-3.42,17.97-10.29,22.57-17.23,5.29-7.98,8.05-17.37,8.09-26.94l.04-12.59c4.88-.33,7.09-5.69,7.09-5.69l4.95,2.54c.8-18.26-13.25-19-13.25-19ZM110.82,172.33l28.21-33.77c1.82-2.18,4.31-3.73,7.09-4.31,3.46-.73,8.05-.15,12.57,5.07,8.82,10.19-1.18,22.89-6.46,26.56-.22.15-.47.26-.7.39-1.87,1.09-10.73,5.88-17.1,6.06l11.03-13.99c1.43-2.14.7-4.08-.56-4.91-3-1.97-5.25,1.45-5.25,1.45l-13.47,17.46h-15.37ZM168.49,179.46s-7.73,5.32-16.26,5.52h-12.72s-.96,0-.96,0c-1.78,0-2.62-.08-4.11,2.76-.2.38-.41.75-.64,1.11-1.76,2.74-8.42,11.86-19,11.17l14.42-19.9s21.45-1.42,31.25-12.87c.41-.48.88-.92,1.28-1.42,2.24-2.83,8.3-9.82,6.01-22.22-.48-2.59-1.34-5.09-2.5-7.45-1.96-3.97-6.12-13.97-3.29-22.43,0,0,3.21-8.43,12.85-7.73,0,0,.39.02,1.02.14,5.86,1.1,10.1,6.22,10.15,12.18l.27,31.23s0,18.26-17.76,29.91Z"/>
  <path d="M176.49,113.87s-.09-.02-.13-.03c-1.73-.42-3.57.25-4.53,1.75-.31.49-.51,1.04-.38,1.59.1.45.47.8.92.89,1.3.27,4.87,1.27,6.74,4.43l.16-4.81c.06-1.76-1.08-3.36-2.77-3.82Z"/>
</svg>